<svg width="19" height="20" viewBox="0 0 19 20" fill="none" xmlns="http://www.w3.org/2000/svg">
<path id="Bookmarks icon" fill-rule="evenodd" clip-rule="evenodd" d="M17.5 20C17.1753 20 16.8592 19.8956 16.5984 19.7022L9.64999 14.55C9.5611 14.4833 9.43888 14.4833 9.34999 14.55L2.40163 19.7022C2.14081 19.8956 1.82471 20 1.5 20C1 20 0.5 19.5 0.5 19.0234V2C0.5 0.895431 1.39543 0 2.5 0H16.5C17.6046 0 18.5 0.895431 18.5 2V19C18.5 19.5 18 20 17.5 20ZM16.5 1.5H2.5C2.22386 1.5 2 1.72386 2 2V18.1875L8.44999 13.35C9.07221 12.8833 9.92776 12.8833 10.55 13.35L17 18.1875V2C17 1.72386 16.7761 1.5 16.5 1.5Z" fill="#687684"/>
</svg>
