<svg width="23" height="22" viewBox="0 0 23 22" fill="none" xmlns="http://www.w3.org/2000/svg">
<g id="Feature stroke icon">
<path d="M4.25 0.75C4.25 0.335786 3.91421 0 3.5 0C3.08579 0 2.75 0.335786 2.75 0.75V2.75L0.75 2.75C0.335786 2.75 0 3.08579 0 3.5C0 3.91421 0.335786 4.25 0.75 4.25H2.75V6.25C2.75 6.66421 3.08579 7 3.5 7C3.91421 7 4.25 6.66421 4.25 6.25V4.25L6.25 4.25C6.66421 4.25 7 3.91421 7 3.5C7 3.08579 6.66421 2.75 6.25 2.75H4.25V0.75Z" fill="#4C9EEB"/>
<path fill-rule="evenodd" clip-rule="evenodd" d="M12.981 0.710615C13.2027 -0.0618389 14.2973 -0.0618389 14.519 0.710615L16.4244 7.35091L22.0949 9.24105C22.8242 9.48417 22.8242 10.5158 22.0949 10.7589L16.4244 12.6491L14.519 19.2894C14.2973 20.0618 13.2027 20.0618 12.981 19.2894L11.0756 12.6491L5.40513 10.7589C4.67577 10.5158 4.67577 9.48417 5.40513 9.24105L11.0756 7.35091L12.981 0.710615ZM13.75 3.46912L12.4157 8.11905C12.3429 8.37256 12.1499 8.57394 11.8997 8.65734L7.87171 10L11.8997 11.3427C12.1499 11.4261 12.3429 11.6274 12.4157 11.8809L13.75 16.5309L15.0843 11.8809C15.1571 11.6274 15.3501 11.4261 15.6003 11.3427L19.6283 10L15.6003 8.65734C15.3501 8.57394 15.1571 8.37256 15.0843 8.11905L13.75 3.46912Z" fill="#4C9EEB"/>
<path d="M6.75 16.25C7.16421 16.25 7.5 16.5858 7.5 17V18.25H8.75C9.16421 18.25 9.5 18.5858 9.5 19C9.5 19.4142 9.16421 19.75 8.75 19.75H7.5V21C7.5 21.4142 7.16421 21.75 6.75 21.75C6.33579 21.75 6 21.4142 6 21V19.75H4.75C4.33579 19.75 4 19.4142 4 19C4 18.5858 4.33579 18.25 4.75 18.25H6V17C6 16.5858 6.33579 16.25 6.75 16.25Z" fill="#4C9EEB"/>
</g>
</svg>
