<svg width="20" height="20" viewBox="0 0 20 20" fill="none" xmlns="http://www.w3.org/2000/svg">
<g id="Lists icon">
<path d="M4.75 5C4.33579 5 4 5.33579 4 5.75C4 6.16421 4.33579 6.5 4.75 6.5H15.25C15.6642 6.5 16 6.16421 16 5.75C16 5.33579 15.6642 5 15.25 5H4.75Z" fill="#687684"/>
<path d="M4 9.75C4 9.33579 4.33579 9 4.75 9H15.25C15.6642 9 16 9.33579 16 9.75C16 10.1642 15.6642 10.5 15.25 10.5H4.75C4.33579 10.5 4 10.1642 4 9.75Z" fill="#687684"/>
<path d="M4.75 13C4.33579 13 4 13.3358 4 13.75C4 14.1642 4.33579 14.5 4.75 14.5H10C10.4142 14.5 10.75 14.1642 10.75 13.75C10.75 13.3358 10.4142 13 10 13H4.75Z" fill="#687684"/>
<path fill-rule="evenodd" clip-rule="evenodd" d="M0 2C0 0.895431 0.895431 0 2 0H18C19.1046 0 20 0.895431 20 2V18C20 19.1046 19.1046 20 18 20H2C0.895431 20 0 19.1046 0 18V2ZM2 1.5H18C18.2761 1.5 18.5 1.72386 18.5 2V18C18.5 18.2761 18.2761 18.5 18 18.5H2C1.72386 18.5 1.5 18.2761 1.5 18V2C1.5 1.72386 1.72386 1.5 2 1.5Z" fill="#687684"/>
</g>
</svg>
