<svg width="16" height="22" viewBox="0 0 16 22" fill="none" xmlns="http://www.w3.org/2000/svg">
<path id="Moments icon" fill-rule="evenodd" clip-rule="evenodd" d="M2.29245 1.17202C2.33083 0.928993 2.5403 0.75 2.78634 0.75H10.3092C10.6275 0.75 10.8648 1.04351 10.7981 1.35476L9.4277 7.75H14.5337C14.9576 7.75 15.1892 8.24443 14.9178 8.57009L3.99573 21.6766C3.6707 22.0666 3.03856 21.78 3.11774 21.2785L4.62225 11.75H1.20739C0.900147 11.75 0.665588 11.4755 0.713506 11.172L2.29245 1.17202ZM3.64083 2.25L2.37767 10.25H5.79253C6.09977 10.25 6.33433 10.5245 6.28641 10.828L5.16497 17.9305L12.3987 9.25H8.19071C7.87239 9.25 7.63511 8.95649 7.70181 8.64524L9.07222 2.25H3.64083Z" fill="#687684"/>
</svg>
