<svg width="18" height="21" viewBox="0 0 18 21" fill="none" xmlns="http://www.w3.org/2000/svg">
<g id="Profile Stroke Icon">
<path fill-rule="evenodd" clip-rule="evenodd" d="M13.75 6C13.75 10 11 10.5 9 10.5C7 10.5 4.25 10 4.25 6C4.25 3 6 0.25 9 0.25C12 0.25 13.75 3 13.75 6ZM12.25 6C12.25 7.61336 11.7258 8.21333 11.2929 8.50192C10.7395 8.8709 9.92998 9 9 9C8.07002 9 7.26052 8.8709 6.70705 8.50192C6.27416 8.21333 5.75 7.61336 5.75 6C5.75 4.77348 6.11058 3.67089 6.69154 2.91118C7.24865 2.18264 8.01208 1.75 9 1.75C9.98792 1.75 10.7514 2.18264 11.3085 2.91118C11.8894 3.67089 12.25 4.77348 12.25 6Z" fill="#687684"/>
<path fill-rule="evenodd" clip-rule="evenodd" d="M0.75 18.75C0.75 19.8546 1.64543 20.75 2.75 20.75H15.25C16.3546 20.75 17.25 19.8546 17.25 18.75V18.4577C17.25 17.2623 16.6748 16.0089 15.3801 14.5098C14.0585 12.9794 11.9804 11.75 9 11.75C6.01965 11.75 3.94155 12.9794 2.61988 14.5098C1.3252 16.0089 0.75 17.2623 0.75 18.4577V18.75ZM3.75512 15.4902C2.6748 16.7411 2.25 17.6531 2.25 18.4577V18.65C2.25 18.9814 2.51863 19.25 2.85 19.25H15.15C15.4814 19.25 15.75 18.9814 15.75 18.65V18.4577C15.75 17.6531 15.3252 16.7411 14.2449 15.4902C13.1915 14.2706 11.5196 13.25 9 13.25C6.48035 13.25 4.80845 14.2706 3.75512 15.4902Z" fill="#687684"/>
</g>
</svg>
