<svg width="18" height="23" viewBox="0 0 18 23" fill="none" xmlns="http://www.w3.org/2000/svg">
<g id="Topics Stroke Icon">
<path d="M5.25 7C4.83579 7 4.5 7.33579 4.5 7.75C4.5 8.16421 4.83579 8.5 5.25 8.5H12.75C13.1642 8.5 13.5 8.16421 13.5 7.75C13.5 7.33579 13.1642 7 12.75 7H5.25Z" fill="#687684"/>
<path d="M4.5 10.75C4.5 10.3358 4.83579 10 5.25 10H9.75C10.1642 10 10.5 10.3358 10.5 10.75C10.5 11.1642 10.1642 11.5 9.75 11.5H5.25C4.83579 11.5 4.5 11.1642 4.5 10.75Z" fill="#687684"/>
<path fill-rule="evenodd" clip-rule="evenodd" d="M3.91028 16.3955C5.19638 17.2959 6.69444 17.8363 8.24999 17.9683V21.7774C8.24999 22.453 9.07318 22.7841 9.54104 22.2968C9.61197 22.2229 9.68941 22.1425 9.77275 22.0559L9.77539 22.0532C10.7655 21.025 12.5852 19.1355 14.2339 17.0417C15.1286 15.9054 15.9862 14.6926 16.638 13.5094C17.2825 12.3395 17.7634 11.1325 17.8307 10.0219L17.8296 10.0219C17.9922 8.42118 17.7168 6.80215 17.0274 5.34C16.2516 3.69452 14.9888 2.32721 13.41 1.42323C11.8313 0.519253 10.0129 0.122271 8.20105 0.286042C6.38921 0.449813 4.67147 1.16643 3.28042 2.33884C1.88937 3.51126 0.89222 5.08284 0.423992 6.84078C-0.044236 8.59872 0.0390795 10.4581 0.662657 12.1671C1.28623 13.8761 2.41995 15.3522 3.91028 16.3955ZM12.6647 2.72494C11.3528 1.97375 9.8417 1.64386 8.33608 1.77995C6.83047 1.91604 5.40305 2.51154 4.24711 3.4858C3.09117 4.46006 2.26255 5.76603 1.87346 7.22685C1.48437 8.68767 1.5536 10.2328 2.07179 11.6529C2.58997 13.0731 3.53207 14.2997 4.77051 15.1667C6.00896 16.0337 7.48392 16.4991 8.99567 16.5H9.24999C9.52613 16.5 9.74999 16.7239 9.74999 17V19.9074C10.7149 18.8825 11.9276 17.546 13.0554 16.1137C13.9227 15.0122 14.7265 13.8705 15.3242 12.7856C15.8205 11.8848 16.1497 11.0672 16.2782 10.3712C16.5333 8.88111 16.3154 7.3471 15.6707 5.97972C15.0259 4.61235 13.9766 3.47614 12.6647 2.72494Z" fill="#687684"/>
</g>
</svg>
